PathFileType	4	(X/Y/Z)	..\data\2015043\dynamic\2015043_C5_05.trc
DataRate	CameraRate	NumFrames	NumMarkers	Units	OrigDataRate	OrigDataStartFrame	OrigNumFrames
100.000000	100.000000	4	52	mm	100.000000	83	167
Frame#	Time	L_IAS			L_IPS			R_IPS			R_IAS			L_FTC			L_FLE			L_FME			L_FAX			L_TTC			L_FAL			L_TAM			L_FCC			L_FM1			L_FM2			L_FM5			R_FTC			R_FLE			R_FME			R_FAX			R_TTC			R_FAL			R_TAM			R_FCC			R_FM1			R_FM2			R_FM5			CV7			TV10			SXS			SJN			L_SIA			L_SRS			L_SAA			L_SAE			L_HLE			L_HME			L_UOA			L_RSP			L_UHE			L_HM2			L_HM5			R_SIA			R_SRS			R_SAA			R_SAE			R_HLE			R_HME			R_UOA			R_RSP			R_UHE			R_HM2			R_HM5			
		X1	Y1	Z1	X2	Y2	Z2	X3	Y3	Z3	X4	Y4	Z4	X5	Y5	Z5	X6	Y6	Z6	X7	Y7	Z7	X8	Y8	Z8	X9	Y9	Z9	X10	Y10	Z10	X11	Y11	Z11	X12	Y12	Z12	X13	Y13	Z13	X14	Y14	Z14	X15	Y15	Z15	X16	Y16	Z16	X17	Y17	Z17	X18	Y18	Z18	X19	Y19	Z19	X20	Y20	Z20	X21	Y21	Z21	X22	Y22	Z22	X23	Y23	Z23	X24	Y24	Z24	X25	Y25	Z25	X26	Y26	Z26	X27	Y27	Z27	X28	Y28	Z28	X29	Y29	Z29	X30	Y30	Z30	X31	Y31	Z31	X32	Y32	Z32	X33	Y33	Z33	X34	Y34	Z34	X35	Y35	Z35	X36	Y36	Z36	X37	Y37	Z37	X38	Y38	Z38	X39	Y39	Z39	X40	Y40	Z40	X41	Y41	Z41	X42	Y42	Z42	X43	Y43	Z43	X44	Y44	Z44	X45	Y45	Z45	X46	Y46	Z46	X47	Y47	Z47	X48	Y48	Z48	X49	Y49	Z49	X50	Y50	Z50	X51	Y51	Z51	X52	Y52	Z52	

84	0.8300000000000001	-125.4867401123047	1001.007934570313	107.8347320556641	-309.7037658691407	1014.592956542969	167.9121551513672	-314.5093994140626	1014.347900390625	265.5679321289062	-144.7590332031251	1001.373168945313	348.9541320800782	-203.7113647460938	907.5655517578127	46.39725494384763	-135.1407318115235	487.580291748047	84.39794158935547	-133.9791717529297	483.0648498535157	202.670150756836	-150.4685516357422	416.2122802734376	81.68900299072266	-92.58572387695315	403.4872436523439	137.8917694091797	-214.645965576172	78.88304901123048	141.5226898193359	-181.3896942138672	87.35019683837892	230.798828125	-263.4539489746094	27.66333770751954	186.1707611083984	-58.41977310180668	19.74188232421875	204.6266174316407	-57.92087173461917	35.39699935913087	142.4335479736328	-114.5531921386719	21.49504470825196	92.50454711914062	-246.6018676757814	905.123229980469	392.2499389648438	-122.1687316894532	496.5373535156251	393.353973388672	-83.25523376464848	483.3826293945314	271.7817077636719	-158.2677154541016	450.9372558593751	398.4953918457032	-95.42104339599615	398.6824340820314	353.0716247558594	-412.5976562500002	231.7385406494141	328.0617065429688	-357.6560058593751	203.8077545166016	253.4798736572266	-466.4373779296877	219.2699890136719	264.6695251464844	-336.0367126464845	71.87955474853517	304.01220703125	-345.2695312500001	90.73704528808595	353.1180419921875	-396.1334533691408	125.8246002197266	385.4584045410157	-254.5208282470704	1517.893310546875	203.7449035644532	-315.5206298828126	1289.24658203125	217.4321746826172	-85.25737762451176	1286.901733398438	222.6577606201172	-139.0029296875001	1437.611206054688	214.179672241211	-342.8895263671876	1310.114013671875	124.7509078979492	-309.9835510253907	1435.334106445313	118.3945007324219	-256.9861145019532	1435.87353515625	29.22220230102537	-216.4714660644532	1436.219970703125	7.132504463195776	-228.3968048095704	1103.135375976563	-64.8840713500977	-258.0261840820313	1087.792358398438	16.99467468261716	-265.2196350097657	1070.820678710938	-40.31049728393559	-96.07252502441409	865.2883300781252	-29.16740798950197	-142.6472930908203	853.7769775390627	-90.98859405517581	-58.7645492553711	778.6079101562502	-38.27870941162111	-149.0440368652344	782.6040649414065	-91.3386154174805	-344.3109741210939	1326.571655273438	301.2472229003906	-316.1543884277345	1448.02880859375	293.9424438476562	-278.9506835937501	1455.398071289063	391.2278137207032	-246.5887603759767	1452.983764648438	426.1483459472657	-251.9370880126954	1123.562622070313	501.5370483398438	-280.8377990722657	1110.930053710938	435.2588500976563	-282.4636535644532	1087.5654296875	471.0489807128907	-83.58158874511726	908.4543457031252	463.7624816894532	-148.6432342529298	885.1077880859377	508.2297363281251	-37.30838012695319	833.305358886719	467.2016906738282	-128.5848693847657	813.7015380859377	513.3215942382814	
85	0.84	-114.740219116211	1001.650695800781	106.912582397461	-298.8984680175782	1015.828918457031	167.3330383300781	-303.573455810547	1015.852111816406	265.0054321289062	-133.8462066650391	1002.939819335938	347.7846374511719	-194.0142211914063	908.2910766601565	45.85057830810545	-133.0495910644532	487.3025817871095	83.528564453125	-131.3763732910157	482.756561279297	201.6447143554688	-148.9465942382813	416.1065368652345	80.86378479003906	-90.99813079833987	402.9637756347657	136.8893432617188	-214.5240020751954	79.04112243652345	141.4933013916016	-181.1654815673829	87.52183532714845	230.757080078125	-263.4070739746094	28.03095245361329	186.2683410644531	-58.34077453613286	19.72483444213868	204.4669189453126	-57.84028625488284	35.25800323486329	142.2192993164063	-114.5758972167969	21.33462715148926	92.28128814697266	-234.6336212158204	907.219909667969	392.0952148437501	-102.119987487793	499.5669860839845	392.371063232422	-63.62081146240239	487.789520263672	270.6278686523438	-136.9181213378907	452.4727783203126	397.3120727539064	-72.59622192382818	402.6707153320314	351.6490478515626	-383.9140930175782	224.6473236083985	326.9050903320312	-328.4624633789064	199.4086303710938	251.8662109375	-438.1019287109377	210.0726470947266	263.9789428710938	-300.1182861328126	69.12649536132814	301.5713806152344	-309.5976562500001	87.44896697998048	350.6744079589844	-361.8176269531251	119.8094558715821	383.7220458984375	-243.3296966552735	1519.1435546875	203.0627593994141	-304.5928344726563	1290.365966796875	216.1872711181641	-74.34828948974614	1287.994262695313	222.255355834961	-127.9867630004883	1438.721313476563	213.7391357421875	-331.5877685546876	1311.464233398438	123.2285690307617	-298.7597351074219	1436.517944335938	117.3915252685547	-245.4588012695313	1437.20263671875	28.28000450134275	-204.7772064208985	1437.679565429688	6.404010772705055	-212.1405792236329	1104.265258789063	-65.88754272460942	-242.2619934082032	1088.480590820313	15.91569805145261	-248.6424865722657	1071.146484375	-41.49020385742191	-75.24242401123048	869.107360839844	-27.89602279663088	-121.0685958862305	856.4344482421877	-89.94773864746097	-35.76729965209961	783.3992919921877	-36.63279342651369	-125.8081436157227	785.098083496094	-90.138298034668	-333.796112060547	1327.801879882813	299.9761657714844	-305.4033508300782	1449.164306640625	292.8968811035156	-268.5435791015626	1456.55224609375	390.2413940429688	-236.4327545166017	1454.06005859375	425.2967834472657	-243.7661285400392	1124.51708984375	499.8747253417969	-272.4822692871095	1112.313354492188	433.5426940917969	-274.5496520996095	1088.915161132813	469.2154235839844	-77.1705627441407	908.0847778320315	462.292938232422	-142.5151519775391	885.299011230469	506.7061157226564	-31.64768791198737	832.4797973632815	465.5840759277345	-123.1324310302735	813.7102050781252	511.7545471191407	
86	0.85	-104.093246459961	1002.139892578125	105.9907455444336	-288.1662902832032	1016.9296875	166.8907318115234	-292.6537170410157	1017.231689453125	264.5765991210938	-122.8866271972657	1004.3505859375	346.6166687011719	-184.508773803711	908.8889160156252	45.35762786865233	-131.0691680908203	487.0506286621095	82.70864868164062	-128.9098663330079	482.4381103515626	200.6718139648438	-147.5081787109375	416.0386047363282	80.08170318603516	-89.46640777587893	402.5192871093751	135.9420013427735	-214.3836364746095	79.24019622802736	141.4904327392578	-180.9187011718751	87.7229461669922	230.7520751953125	-263.3312377929688	28.40583419799805	186.3983001708984	-58.23813247680668	19.73156356811524	204.3298797607422	-57.73129653930667	35.16025543212891	142.0364074707032	-114.5724639892579	21.22752571105957	92.08828735351562	-222.6047210693361	909.2290039062502	391.9873657226564	-82.58087921142584	502.4406127929689	391.4020385742189	-44.58204269409184	492.0448608398439	269.5004272460938	-115.9792098999024	453.6759033203126	396.126678466797	-50.18103027343756	406.6169738769532	350.2242126464844	-354.603729248047	216.4432678222657	325.7625122070312	-298.6629028320314	194.156723022461	250.3058776855469	-408.9539184570314	199.7259826660157	263.2601928710938	-263.3262329101564	65.89662170410158	299.1358032226562	-273.1513977050782	83.58242797851564	348.2583618164062	-326.783172607422	112.9556045532227	381.9715576171875	-232.138412475586	1520.233520507813	202.4297485351563	-293.6705932617188	1291.3330078125	215.0161743164063	-63.4350852966309	1288.928588867188	221.8494110107422	-116.9928970336915	1439.666870117188	213.3111114501953	-320.3088378906251	1312.65380859375	121.7835845947265	-287.5652160644532	1437.5537109375	116.4574127197266	-233.9875946044922	1438.380737304688	27.40292739868162	-193.1374511718751	1438.989990234375	5.737761020660377	-195.9930572509766	1105.323486328125	-66.83218383789067	-226.5457153320313	1089.078125	14.8804769515991	-232.1486206054688	1071.388671875	-42.62711715698246	-54.45536041259767	873.0576171875002	-26.46891403198244	-99.47911834716798	859.1800537109377	-88.73276519775393	-12.79483413696289	788.3963623046877	-34.73391723632813	-102.5565643310547	787.700378417969	-88.64925384521487	-323.2608947753907	1328.8662109375	298.7648010253906	-294.6286010742189	1450.13525390625	291.9078979492188	-258.1010131835939	1457.537109375	389.2951354980469	-226.2507934570314	1454.963256835938	424.4785461425782	-235.7219390869142	1125.333740234375	498.2470703125001	-264.2076416015626	1113.56201171875	431.8434753417969	-266.7474975585939	1090.132568359375	467.3871765136719	-70.80596923828132	907.6215820312502	460.9691772460939	-136.4957733154298	885.369323730469	505.2192382812501	-26.01998519897467	831.577575683594	464.1513061523439	-117.7683181762696	813.5984497070315	510.2020263671876	
87	0.86	-93.54113769531253	1002.457275390625	105.0799255371094	-277.5071411132813	1017.860534667969	166.5743408203125	-281.7623291015626	1018.440979003906	264.2678833007812	-111.8915176391602	1005.574279785156	345.4703063964844	-175.1740112304688	909.3356933593752	44.91622161865233	-129.145736694336	486.8137207031251	81.96142578125	-126.5434494018555	482.0980224609376	199.7827301025391	-146.1165008544922	415.995086669922	79.36901092529297	-87.96873474121097	402.1277465820314	135.0747528076172	-214.2297668457032	79.47487640380861	141.5369873046875	-180.6452636718751	87.94463348388673	230.8016815185547	-263.2303161621094	28.77644729614259	186.5857238769531	-58.11203002929692	19.7614974975586	204.2162017822266	-57.60341262817386	35.10433959960938	141.8893280029297	-114.5525131225586	21.17444038391114	91.94155883789062	-210.5543975830079	911.0814208984377	391.8966064453126	-63.60545730590827	505.0919494628907	390.4578552246095	-26.16808509826664	496.0567016601564	268.4179077148438	-95.49752807617193	454.5166320800782	394.9529113769532	-28.24155998229985	410.4580383300782	348.8248291015626	-324.6292419433595	207.2574005126954	324.6163024902344	-268.2227478027345	188.1287231445313	248.808837890625	-378.9051208496095	188.3491363525391	262.4802856445312	-225.7098541259766	62.31473541259767	296.8478698730469	-235.9940032958985	79.31113433837892	345.997314453125	-291.0503845214845	105.4914016723633	380.2830200195312	-220.9314117431641	1521.139038085938	201.845947265625	-282.7501220703126	1292.133178710938	213.9221496582032	-52.50888442993168	1289.67333984375	221.4393768310547	-105.9971466064454	1440.42333984375	212.9006652832032	-309.0517578125001	1313.669189453125	120.4208145141601	-276.3841247558594	1438.427001953125	115.588623046875	-222.5534973144532	1439.378662109375	26.58895111083982	-181.5296020507813	1440.11669921875	5.13351011276243	-179.9496307373047	1106.276123046875	-67.72656250000004	-210.8894958496094	1089.55224609375	13.86434936523435	-215.7481079101563	1071.522094726563	-43.74523925781254	-33.74855422973634	877.1062622070315	-24.88490295410157	-77.90620422363281	861.9857177734377	-87.34920501708987	10.11087322235108	793.5708618164065	-32.58249664306641	-79.31494903564453	790.3868408203127	-86.88840484619143	-312.695037841797	1329.74658203125	297.6132507324219	-283.8118591308595	1450.925903320313	290.9797058105469	-247.6010131835939	1458.328369140625	388.3966369628907	-216.0152893066407	1455.662841796875	423.7003479003907	-227.7794189453126	1125.985473632813	496.6671752929689	-255.9916534423829	1114.644409179688	430.1703491210938	-259.021453857422	1091.1875	465.5796813964844	-64.46562194824226	907.0308837890627	459.7908325195314	-130.5608673095704	885.2846679687502	503.7696533203126	-20.39938354492194	830.5667724609377	462.9062805175782	-112.466766357422	813.3319091796877	508.6627502441407	
